<?xml version="1.0" encoding="utf-8"?>
<!-- Generator: Adobe Illustrator 22.1.0, SVG Export Plug-In . SVG Version: 6.00 Build 0)  -->
<svg version="1.1" id="Layer_1" xmlns="http://www.w3.org/2000/svg" xmlns:xlink="http://www.w3.org/1999/xlink" x="0px" y="0px"
	 viewBox="0 0 215.6 215.6" style="enable-background:new 0 0 215.6 215.6;" xml:space="preserve">
<style type="text/css">
	.st0{fill:#FFFFFF;}
	.st1{fill:#F49E28;}
	.st2{fill:#FEFDFC;}
</style>
<g>
	<path class="st0" d="M196.2,128.2c-0.3,0-0.5-0.2-0.7-0.5c-0.4-0.7-0.6-1.5-0.7-2.3c-0.4-3.8,1.3-7.4,0.9-11.2
		c-0.1-2.9,0.3-5.8-0.5-8.7c-0.5-1.8-0.4-3.6-1-5.3c-0.4-3.5-1.2-6.9-2.3-10.3c-0.5-2.6-1.7-4.9-2.6-7.3c-1.4-3.3-3-6.5-5-9.5
		c-0.6-0.9-1.3-1.7-2.1-2.4c-1.1-1.1-1.5-2.7-2.3-4c-2.8-4.1-6-7.9-9.2-11.7c-0.5-0.5-1-0.9-1.5-1.4c-4.7-5-9.9-9.4-15.2-13.8
		c-0.9-0.7-1.8-1.5-2.6-2.2c-4-3.1-7.7-6.6-12.3-8.8c-1-0.6-1.9-1.3-2.9-1.8c-4.2-2.4-8.8-4.1-13.4-5.6c-0.4-0.1-0.9-0.3-1.3-0.5
		c-2.5-0.7-5-1.2-7.6-1.4c-3.6-0.2-7.2-0.8-10.8-1c-1.6-0.1-3.2-0.2-4.8,0.4c-0.5,0.1-0.9,0.2-1.4,0.3c-1.4,0.2-2.8,0.3-4.1,0.8
		c-1.8,0.4-3.7,0.5-5.4,1.3c-2.6,1.1-5.5,1.4-8.1,2.6C69,29.7,58.1,34.6,49.3,42.8c-0.5,0.4-1.1,0.7-1.7,0.9
		c-0.8,0.4-1.7,0.8-2.5,1.2c-4,3-7.7,6.4-11.4,9.7c-1.2,1.1-2.2,2.4-3.1,3.8c-1.1,1.3-2,3-3.9,3.2c0-0.3-0.2-0.7-0.2-1.1
		c3.9-7.6,8.8-15.3,14.7-22.9C56,18,73.7,15.5,90.7,13c7.4-1.1,14.4-2.1,21.2-4.4l0.9-0.3l0.9,0.2c46,9.1,84.2,46.6,86.9,85.3
		C201.5,105.5,199.9,117.1,196.2,128.2z"/>
	<path class="st1" d="M214.6,100.2c-6.3-51.5-48.9-94.6-99-100.5C74.7,5,46.5,19.7,27,46c-1.7,2.2-1.8,4.9-2,8
		c-0.2,4-0.5,8.5-4.4,11.9C5.2,79.1,2.6,96.1,0.4,118.5c-1.1,11.8,3.6,21.7,8.6,32.2c3.5,7.4,7,15,8.6,23.3
		c24,26.9,56.4,41.7,91.2,41.7c38.5,0,75.9-18.5,100-49.4c3.8-4.8,6.2-11.8,5.8-16.6c-0.7-7.9-0.2-15.8,0.2-23.4
		C215.3,117.9,215.7,109,214.6,100.2z M177.4,160.5c-17.8,20.5-43.2,33.2-69.8,35.1c-2.4,0.1-4.8,0.2-7.1,0.2
		c-15.3,0-28.3-3.7-39.8-9.5c-13.5-6.8-24.8-16.6-35.2-26.7l-0.5-0.5l-0.3-0.7c-1.4-3.4-2.6-6.7-3.7-10c-10.7-31.8-9.1-60,5.4-88
		c3.9-7.6,8.8-15.3,14.7-22.9C56,18,73.7,15.5,90.7,13c7.4-1.1,14.4-2.1,21.2-4.4l0.9-0.3l0.9,0.2c46,9.1,84.2,46.6,86.9,85.3
		c0.8,11.7-0.7,23.4-4.5,34.5C192.2,139.8,185.9,150.8,177.4,160.5z"/>
	<path class="st2" d="M61.4,186c-0.2,0.2-0.4,0.4-0.6,0.4c-13.5-6.8-24.8-16.6-35.2-26.7l-0.5-0.5l-0.3-0.7c-1.4-3.4-2.6-6.7-3.7-10
		c-0.1-0.4-0.2-0.8-0.3-1.1c2.9-1.1,3.4,1.7,4.9,3c4.4,4.5,8.4,9.4,13,13.8c2.6,1.9,4.8,4.1,6.8,6.5c0.9,1.8,2.6,2.8,4.1,3.9
		c1.7,2,4.5,2.8,5.5,5.5C56.5,182.7,59.5,183.8,61.4,186z"/>
</g>
</svg>
