<?xml version="1.0" encoding="utf-8"?>
<!-- Generator: Adobe Illustrator 22.1.0, SVG Export Plug-In . SVG Version: 6.00 Build 0)  -->
<svg version="1.1" id="Layer_1" xmlns="http://www.w3.org/2000/svg" xmlns:xlink="http://www.w3.org/1999/xlink" x="0px" y="0px"
	 viewBox="0 0 215.6 215.6" style="enable-background:new 0 0 215.6 215.6;" xml:space="preserve">
<style type="text/css">
	.st0{fill:#FFFFFF;}
	.st1{fill:#F49E28;}
</style>
<g>
	<path class="st0" d="M195.2,121.4c1.2-4.2,0.2-8.5,0.6-12.8c0-1.1-0.1-2.2,0-3.4c0.4-3.5-0.6-7-1-10.5c-0.8-4.7-2.1-9.2-4.3-13.5
		c-1.2-2.8-2.6-5.5-4-8.2c-0.7-1.4-1.6-2.7-2.5-4c-1.6-2.4-3.1-4.9-4.9-7.2c-3.1-3.1-5.9-6.5-8.8-9.9c-1.4-1.7-3.3-2.9-5.1-4.3
		c-1.2-1.1-2.3-2.2-3.4-3.3c-4.4-4.6-9.8-8-14.8-11.7c-2.1-1.4-4.1-2.9-6.5-3.9c-3-1.4-5.8-3.1-8.9-4.2c-1.6-0.7-3.4-0.5-5-0.9
		c-2.9-1.2-6-1.7-9-2.1c-4.5-0.9-8.9-0.7-13.4-0.1c-0.7,0.2-1.5,0.4-2.2,0.5c-2.2,0.4-4.3,0.9-6.4,1.5c-2.8,0.5-5.4,1.5-7.8,2.9
		c-2.2,1.1-4.7,1.6-6.8,3c-1.1,0.7-2.2,1.4-3.3,2.1c-1.1,0.7-2.2,1.4-3.3,2.2c-1.1,0.8-2.3,1.4-3.5,2.1c-4.7,2.1-8.7,5.3-13.1,8
		c-1.3,0.8-2.5,1.8-3.6,2.9c-0.8,0.8-1.6,1.6-2.3,2.4c-2.1,2-4.8,3.3-6.4,5.9c-1.5,2.3-3.6,4-5.3,6c-1.5,1.9-2.7,3.9-4,5.9
		c-0.5,0.8-0.9,1.5-1.3,2.3c-1.5,3.1-3.4,6-4.6,9.2c-1.1,3.4-2.5,6.7-3,10.3c-0.3,1.4-0.8,2.7-1.2,4c-0.8,1.6-0.1,3.1,0.4,4.6
		c-0.4,2-1.9,3.7-2,5.8c-0.1,1.7,0,3.4-0.1,5.2c0,1.3,0,2.6,0,3.9c0,1.3-0.1,2.6-0.5,3.8c-3.8,4.5-2.9,8.8,0.7,12.9
		c2.3,2.3,3.9,5.1,6.2,7.3c4,3.7,6.9,8.5,11.1,12.1c2.3,2.1,3.8,5,6.1,7.1c0.5,0.5,1,1,1.5,1.4c3,3,5.9,6,8.9,8.8
		c3.8,3,7.4,6.3,11.3,9.2c6.8,4.6,13.3,9.6,20.8,12.9c1.1,0.5,2.2,0.8,3.4,1.3c2.8,1.3,5.7,2.2,8.6,2.9c4.2,1.1,8.4,2,12.7,2.4
		c0.5,0,1,0.1,1.4,0.1c-2.9,0.5-5.9,0.8-8.8,1c-2.4,0.1-4.8,0.2-7.1,0.2c-33.3,0-55.7-17.4-75-36.2l-0.5-0.5l-0.3-0.7
		C6.5,113.6,11.6,76.3,41.1,37.6C56,18,73.7,15.5,90.7,13c7.4-1.1,14.4-2.1,21.2-4.4l0.9-0.3l0.9,0.2c46,9.1,84.2,46.6,86.9,85.3
		c1.2,17.3-2.8,34.6-11.4,50c0.2-1,0.6-1.9,0.9-2.8C192.3,134.5,194.6,128.2,195.2,121.4z"/>
	<path class="st1" d="M214.6,100.2c-6.4-51.5-48.9-94.6-99-100.5C74.7,5,46.5,19.7,27,46c-1.7,2.2-1.8,4.9-2,8
		c-0.2,4-0.5,8.5-4.4,11.9C5.2,79.1,2.6,96.1,0.4,118.5c-1.1,11.8,3.6,21.7,8.6,32.2c3.5,7.4,7.1,15,8.6,23.3
		c24,26.9,56.4,41.7,91.2,41.7c38.5,0,75.9-18.5,100-49.4c3.8-4.8,6.2-11.8,5.8-16.6c-0.7-7.9-0.3-15.8,0.1-23.4
		C215.2,117.9,215.7,109,214.6,100.2z M116.5,194.6c-2.9,0.5-5.9,0.8-8.8,1c-2.4,0.1-4.8,0.2-7.1,0.2c-33.3,0-55.7-17.4-75-36.2
		l-0.5-0.5l-0.3-0.7C6.5,113.6,11.6,76.3,41.1,37.6C56,18,73.7,15.5,90.7,13c7.4-1.1,14.4-2.1,21.2-4.4l0.9-0.3l0.9,0.2
		c46,9.1,84.2,46.6,86.9,85.3c1.2,17.3-2.8,34.6-11.4,50c-3.3,5.9-7.2,11.5-11.8,16.8C161.6,178.7,139.8,190.8,116.5,194.6z"/>
</g>
</svg>
