<?xml version="1.0" encoding="utf-8"?>
<!-- Generator: Adobe Illustrator 22.1.0, SVG Export Plug-In . SVG Version: 6.00 Build 0)  -->
<svg version="1.1" id="Layer_1" xmlns="http://www.w3.org/2000/svg" xmlns:xlink="http://www.w3.org/1999/xlink" x="0px" y="0px"
	 viewBox="0 0 215.6 215.6" style="enable-background:new 0 0 215.6 215.6;" xml:space="preserve">
<style type="text/css">
	.st0{fill:#F49E28;}
	.st1{fill:#FFFFFF;}
</style>
<g>
	<path class="st0" d="M112.5,195.2c-1.6,0.2-3.2,0.3-4.8,0.5c-2.4,0.1-4.8,0.2-7.1,0.2c-33.3,0-55.7-17.4-75-36.2l-0.5-0.5
		c0.4,0.7,1,1.4,1.6,2c6.8,6.3,13.7,12.6,21.4,17.9c19.5,13.5,40.8,19.6,64.5,16.3C112.6,195.3,112.5,195.2,112.5,195.2z"/>
	<path class="st1" d="M187.9,146.1c-0.3-0.3-0.5-0.6-0.6-1c0.2-6.7,3.7-12.5,5.1-18.9c1-4.5,1-8.4-1.9-12c-0.7-1.2-1.5-2.4-2.1-3.7
		c-0.8-1.7-1.6-3.3-2.6-4.9c-3-4.8-5.3-9.9-8-14.8c-2.2-5.6-5.4-10.8-8.4-15.9c-0.5-0.8-1-1.6-1.3-2.4c-1.8-4.1-4.5-7.8-6.9-11.5
		c-1.5-2.5-3.3-4.7-5-7c-1.3-2.1-3.2-3.6-4.9-5.3c-2.9-4.7-7.7-7.5-11.3-11.6c-2.2-1.8-4-5.1-7.6-2.4c-3,0.2-3.8-3.8-6.8-3.6
		c-0.4-0.2-0.7-0.6-1-0.9c-0.1-2.8-2-4.2-4.4-4.9c-2.3-0.4-4.5-3.1-7.1-0.3c-0.9,1-1.7-0.4-2.1-1.2c-1-1.8-2.8-2.2-4.5-2.6
		c-3-0.7-6-1-8.9-1.5c-5,0.1-9.9-2-14.9-0.6c-0.5,0.1-1,0.2-1.5,0.3c-2.5,0.2-5,0.4-7.5,1.1c-3.8,0.8-7.3,2.2-10.9,3.4
		c-0.8,0.3-1.7,0.7-2.5,1.1c-4.8,2.6-8.9,6.4-13.8,8.8c-0.5,0-0.9-0.2-1.2-0.5c0.4-0.6,0.9-1.2,1.4-1.8c13.7-14,29.2-16.2,44.2-18.4
		c7.4-1.1,14.4-2.1,21.2-4.4l0.9-0.3l0.9,0.2c46,9.1,84.2,46.6,86.9,85.3C201.9,112,197.4,130.1,187.9,146.1z"/>
	<path class="st0" d="M214.6,100.2c-6.3-51.5-48.9-94.6-99-100.5C74.7,5,46.5,19.7,27,46c-1.6,2.2-1.8,4.9-2,8
		c-0.2,4-0.5,8.5-4.4,11.9C5.2,79.1,2.6,96.1,0.5,118.5c-1.1,11.8,3.6,21.7,8.6,32.2c3.5,7.4,7,15,8.6,23.3
		c24.1,26.9,56.4,41.7,91.2,41.7c38.5,0,75.9-18.5,100-49.4c3.8-4.8,6.2-11.8,5.8-16.6c-0.7-7.9-0.2-15.8,0.1-23.4
		C215.3,117.9,215.7,109,214.6,100.2z M177.4,160.5c-16.7,19.2-40.2,31.7-64.9,34.6c0,0,0.1,0.1,0.1,0.1c-23.7,3.3-45-2.8-64.5-16.3
		c-7.7-5.3-14.6-11.5-21.4-17.9c-0.6-0.6-1.2-1.3-1.6-2l0,0l0-0.1l-0.3-0.6C11,124.7,10.5,95.2,23.7,66.2c4.3-9.5,10.1-19,17.5-28.6
		c1.8-2.3,3.5-4.3,5.3-6.2c13.7-14,29.2-16.2,44.2-18.4c7.4-1.1,14.4-2.1,21.2-4.4l0.9-0.3l0.9,0.2c46,9.1,84.2,46.6,86.9,85.3
		c1.3,18.2-3.2,36.3-12.8,52.3C184.9,151.1,181.4,156,177.4,160.5z"/>
	<path class="st1" d="M112.6,195.3c-23.7,3.3-45-2.8-64.5-16.3c-7.7-5.3-14.6-11.5-21.4-17.9c-0.6-0.6-1.2-1.3-1.6-2
		c0,0,0-0.1,0-0.1l-0.3-0.6C11,124.7,10.5,95.2,23.7,66.2c1.1,0.3,0.9,1,0.4,1.9c0,0.6-0.1,1.2-0.1,1.8c-0.5,8.2-2.9,16.2-2.5,24.5
		c-0.1,8.4,0.3,16.7,1.4,25c0.9,5.7,2.3,11.3,4.1,16.8c0.7,2.5,1.5,5,2.7,7.4c0.4,0.8,0.8,1.7,1.2,2.5c1.2,2.9,3,5.4,4.3,8.3
		c0.7,1.6,1.7,3,2.7,4.4c1.6,1.8,2.8,4,4.6,5.7c0.5,0.5,1,0.9,1.4,1.4c2.5,2.6,5.1,5.1,7.7,7.6c2.1,1.8,4.4,3.5,6.8,5.1
		c1.5,1.2,3.2,2.1,5,3c1.1,0.7,2.2,1.4,3.5,1.8c3.5,1.7,7.1,3,10.6,4.6c0.8,0.4,1.6,0.8,2.5,0.9c1.6,0.4,3.1,0.8,4.7,1.1
		c1.2,0.2,2.3,0.6,3.5,0.8c2.4,0.6,4.9,1,7.4,1.1c2.8,0.6,5.6,0.8,8.5,1.2c2.3,0.7,4.6,0.5,6.9,0.9c0.7,0.2,1.4,0.5,1.8,1.1
		C112.5,195.2,112.6,195.3,112.6,195.3z"/>
</g>
</svg>
