<?xml version="1.0" encoding="utf-8"?>
<!-- Generator: Adobe Illustrator 22.1.0, SVG Export Plug-In . SVG Version: 6.00 Build 0)  -->
<svg version="1.1" id="Layer_1" xmlns="http://www.w3.org/2000/svg" xmlns:xlink="http://www.w3.org/1999/xlink" x="0px" y="0px"
	 viewBox="0 0 215.6 215.6" style="enable-background:new 0 0 215.6 215.6;" xml:space="preserve">
<style type="text/css">
	.st0{fill:#FFFFFF;}
	.st1{fill:#F49E28;}
</style>
<g>
	<path class="st0" d="M164.9,33c-3.2,0.8-5.7-1.1-8.3-2.4c-2.5-1.3-5.1-2.2-7.8-3.1c-3.5-1.4-7-2.4-10.7-3.1
		c-0.7-0.2-1.4-0.5-2.1-0.7c-5.5-1.5-11.1-2.8-16.8-3.8c-5.1-1.3-9.6,0-13.4,3.5c-2.6,1.6-5,3.3-7.5,5c-4.7,3-9.3,5.9-14.1,8.8
		c-2,0.9-3.9,2.1-5.8,3.4c-2.4,1.6-5,2.9-7.4,4.7c-2.9,2.1-6,4-9,6c-4.1,2.4-7.9,5.2-11.6,8.1c-2,1.8-4.2,3.3-6.2,5.1
		C37.4,69.8,31.7,76,26.4,82.7c-1.1,1.4-2.3,2.7-3.2,4.2c-0.3,0.6-0.7,1.1-1.1,1.6c-1.3,1.8-2,4-3.1,5.9c-1.6,1.4-1.6,4.6-4.4,4.6
		C16.8,78,25.5,58,41.1,37.6C56,18,73.7,15.5,90.7,13c7.4-1.1,14.4-2.1,21.2-4.4l0.9-0.3c0,0,0.1,0,0.1,0l0.9,0.2
		c18.8,3.7,36.3,12.2,50.6,23.6C164.6,32.4,164.7,32.7,164.9,33z"/>
	<path class="st1" d="M214.6,100.2c-6.3-51.5-48.8-94.6-99-100.5C74.7,5,46.5,19.7,27,46c-1.7,2.2-1.8,4.9-2,8
		c-0.2,4-0.5,8.5-4.4,11.9C5.2,79.1,2.6,96.1,0.5,118.5c-1.1,11.8,3.6,21.7,8.6,32.2c3.5,7.4,7,15,8.6,23.3
		c24,26.9,56.4,41.7,91.2,41.7c38.5,0,75.9-18.5,100-49.4c3.8-4.8,6.2-11.8,5.8-16.6c-0.7-7.9-0.2-15.8,0.2-23.4
		C215.3,117.9,215.7,109,214.6,100.2z M177.4,160.5c-17.8,20.5-43.2,33.2-69.8,35.1c-2.4,0.1-4.8,0.2-7.1,0.2
		c-33.3,0-55.7-17.4-75-36.2l-0.5-0.5l-0.3-0.7c-8.6-21.2-12-40.8-10.1-59.5C16.8,78,25.5,58,41.1,37.6C56,18,73.7,15.5,90.7,13
		c7.4-1.1,14.4-2.1,21.2-4.4l0.9-0.3l0.1,0l0.1,0l0.9,0.2c18.8,3.7,36.3,12.2,50.6,23.6C185,48.5,199,70.9,200.6,93.8
		C202.3,117.7,194.1,141.4,177.4,160.5z"/>
</g>
</svg>
